<?xml version="1.0" encoding="utf-8"?>
<!-- Generator: Adobe Illustrator 25.2.0, SVG Export Plug-In . SVG Version: 6.00 Build 0)  -->
<svg version="1.1" id="bg-5" xmlns="http://www.w3.org/2000/svg" xmlns:xlink="http://www.w3.org/1999/xlink" x="0px" y="0px"
	 viewBox="0 0 982 658" style="enable-background:new 0 0 982 658;" xml:space="preserve">
<style type="text/css">
	.st0{fill:#F5F5FC;}
	.st1{fill:#F8F8FF;}
	.st2{fill:#E9EDFB;}
	.st3{fill:#B0C0F4;}
	.st4{fill:#FFFFFF;}
	.st5{fill:#E1E6FB;}
	.st6{fill:none;stroke:#FFFFFF;stroke-width:0.985;stroke-linecap:round;stroke-linejoin:round;stroke-miterlimit:1.3134;}
	.st7{fill:#BAC5F4;}
	.st8{fill:url(#SVGID_1_);}
</style>
<g id="Layer_2_1_">
	<path class="st0" d="M340.8,512.4c0,0-67.5-59.2,17.6-87.1c42.4-13.9,52.4-21.1,85.4-48.1c47.2-38.6,109.1-61,189.5,7.2
		s141.1,89.2,88.2,130.1c-59.5,45.9-23.3,69.5-30.8,82.5c-2,3.4-14.6-11.3-42.3,3.9c-63.1,34.5-95.2-18-141.6-4.9
		c-43.8,12.4-66.3-15-80.5-4.3c-21.2,15.9-34.5,15.7-42.5,11.5c-6.7-3.5-10.6-10.8-10.3-18.4c0.4-8.6,0.4-24.8-3.1-36.6
		C365.1,530.3,352.3,521.1,340.8,512.4z"/>
	<path class="st1" d="M341.5,513.1c0,0-68.2-60.4,17.8-89c42.8-14.3,52.9-21.6,86.2-49.1c47.6-39.5,110.1-62.3,191.2,7.3
		s144.4,94,89,132.9c-38.4,27-25.4,13.8-37.3,23c-25.4,19.6-83.1-17.2-129.9-3.8c-44.2,12.6-87.1-6.2-106.3-7.5
		c-7.6-0.5-38.3-0.6-53.8-1.4c-8.7-0.4-18.2,3.3-30.2,0.5C350.1,521.6,353.1,522.1,341.5,513.1z"/>
	<g id="books">
		<path class="st2" d="M414.8,400.7l-22.1,14.9c-0.3,0.2-0.8-3-1.1-2.8l-15.1,5.8l-0.2,108.2l94.2-1.2L469.8,379l-28.6,0.3
			L414.8,400.7z"/>
		<path class="st3" d="M407.5,404.2l-23.1,11.3l-0.1,3l76.8-0.4l-0.3-27.7l-33.1-0.4l-7.4,5.7c-1.3,1-2.9,2-4.9,3.4
			C412.1,401.3,410.1,402.7,407.5,404.2z"/>
		<polygon class="st3" points="384.4,423.1 384.4,450.4 461.3,450.2 461.3,423.1 		"/>
		<polygon class="st3" points="384.6,455.3 384.6,482.6 461.5,482.4 461.5,455.3 		"/>
		<polygon class="st3" points="385,487.9 385,515.2 461.9,515.1 461.9,487.9 		"/>
		<polygon class="st4" points="411.2,470.8 414.8,466.1 428.2,478 424.8,482.9 		"/>
		<polygon class="st4" points="384.6,460.6 393.3,460.7 393.3,482.6 384.6,482.5 		"/>
		<polygon class="st0" points="403.6,464.3 407.1,462.3 416.2,480.4 412.6,482.8 		"/>
		<polygon class="st4" points="399.4,458.2 403.6,458.2 403.7,482.7 399.4,482.6 		"/>
		<polygon class="st0" points="393.3,465.7 399.5,465.8 399.4,482.7 393.2,482.6 		"/>
		<polygon class="st4" points="427,460.5 435.6,460.6 435.7,482.6 427,482.5 		"/>
		<polygon class="st4" points="441.8,458.1 446,458.1 446.1,482.7 441.7,482.5 		"/>
		<polygon class="st0" points="435.7,465.6 441.8,465.7 441.7,482.6 435.6,482.5 		"/>
		<polygon class="st4" points="385,490.2 391.7,490.3 391.7,515.5 385.1,515.3 		"/>
		<polygon class="st0" points="391.7,494 396.2,493.9 396,515.4 391.6,515.3 		"/>
		<polygon class="st4" points="396.2,498.4 402.3,498.5 402.2,515.4 396,515.3 		"/>
		<polygon class="st0" points="433.6,414.9 433.6,418.1 458.2,418.2 458.2,414.9 		"/>
		<polygon class="st4" points="433.5,412.4 433.6,414.9 449.6,415.1 449.5,412.3 		"/>
		<polygon class="st4" points="384.5,428.4 393.1,428.4 393.2,450.4 384.5,450.3 		"/>
		<polygon class="st0" points="452,431.9 448.3,429.9 439,448 442.6,450.4 		"/>
		<polygon class="st4" points="457.2,425.8 461.4,425.8 461.5,450.3 457.2,450.2 		"/>
		<polygon class="st0" points="451.4,433.4 457.5,433.5 457.4,450.4 451.3,450.3 		"/>
		<polygon class="st0" points="410,447.2 410,450.3 434.6,450.5 434.6,447.2 		"/>
		<polygon class="st4" points="413.9,444.6 414,447.1 430,447.2 429.9,444.5 		"/>
	</g>
	<g id="flower">
		<path class="st0" d="M647.3,558.1c0,0-7.4,8.7-1.3,9c6.1,0.2,18.5,7.3,20.9,1c2.4-6.3,7.1-9.4,4.2-10.2c-2.9-0.7-5.5-3.6-11.6-3.1
			C653.4,555.2,647.3,558.1,647.3,558.1z"/>
		<path class="st5" d="M645.4,515.6c0,0-3.5,0.4-3.5,4.7c0,4.3,2.2,41.5,10.7,42.2c5.5,0.5,11.3,0.4,14.2,0.2
			c1.2-0.1,2.5-3.9,2.7-5.4c1.1-7.4,2.6-25.4,2.9-35.9c0.1-2.1-1.4-5-2.2-5.6C666,511.9,645.4,515.6,645.4,515.6z"/>
		<path class="st2" d="M686.3,443.8c-1.3-1.2-3.2,0.4-2.5,2.2c0.7,1.7,1.1,4.6-1.6,7.7c-4.2,4.8-19.3,21.2-19.1,31.8
			c0.2,10.5-3.1,13.5,0,17.5c3.1,4,15.7,3.9,19-4.7c3.3-8.5,11.6-12,11.5-24.2c-0.2-12.2-1.6-17.6-3.1-21.7
			C689.6,449.7,688.1,445.4,686.3,443.8z"/>
		<path class="st6" d="M663.5,514.1c0,0,1.3-19.1,16.3-27.4c9.4-5.2,10-23.3,7.7-27.4"/>
		<path class="st7" d="M665.4,522.1c0,0,4.7,18.8-0.4,33.7"/>
		<path class="st7" d="M676.2,439.6c-1.4-1.2-3.4,0.4-2.7,2.1c0.7,1.6,1.2,4.4-1.7,7.4c-4.5,4.6-20.6,20.3-20.5,30.4
			c0.2,10.1,0,16,3.4,19.8c3.4,3.8,11.1,0.8,14.6-7.4c3.5-8.2,14.8-11.6,14.6-23.3c-0.2-11.7-1.7-16.8-3.3-20.8
			C679.6,445.3,678,441.2,676.2,439.6z"/>
		<path class="st6" d="M657.3,514.5c0,0-5.3-26,7.5-41.6c5.1-6.2,12.7-18.8,12.6-24.8"/>
		<path class="st2" d="M636.3,443.8c1.3-1.2,3.2,0.4,2.5,2.2c-0.7,1.7-1.1,4.6,1.5,7.7c4.1,4.8,19.1,21.2,19,31.8s0,16.7-3.1,20.7
			c-3.1,4-10.3,0.8-13.6-7.7c-3.3-8.5-13.7-12.2-13.5-24.4s1.6-17.6,3.1-21.7C633.1,449.7,634.6,445.4,636.3,443.8z"/>
		<path class="st6" d="M653.1,514.9c0,0,6-23.6-5.8-39.2c-4.7-6.2-12.3-15.5-12.3-21.5"/>
		<path class="st3" d="M626.7,484.9c0,0-12.4,0.3-19.1-14.7c-6.7-15,8.3-18.1,19.4-10c11.1,8,6.5,11.4,19.7,18.8
			c13.2,7.4,10.3,22.2,6.2,26.1c-4.1,3.9-11.8,10-17-5.9S626.7,484.9,626.7,484.9z"/>
		<path class="st6" d="M650.7,515.1c0,0,0.9-37.6-36.4-47.9"/>
		<path class="st7" d="M645.4,515.6c0,0,15.2-2.4,21.1-1.2s-10.5,2.8-10.5,2.8S648.2,517.6,645.4,515.6z"/>
	</g>
	<path class="st7" d="M461.3,519.6c0,0-17.1-13.5-20-26.7s3.4-22.4,12.5-23.8c9.2-1.4,14.7-5.8,46.7,5.1c32,10.8,68.9-8.4,68.9-8.4
		s30.1-13.9,45-10.5c16.9,3.8,20.5,14.1,15.9,32.4c-4.6,18.3-20.2,32.2-20.2,32.2L461.3,519.6z"/>
	<path class="st7" d="M453.6,518.2c0,0-2.7,0-3.1,2.7c-0.4,2.7,0.4,11.1,1.8,13.8c1.3,2.7,7.6,2.5,7.6,2.5l152.7-0.3
		c0,0,5.1,0.1,6.2-4c0.9-3.3,2.3-6.5,2.4-8.8c0.1-2.7-1.8-5-4.4-5.3c-1.7-0.2-3.3-0.3-5-0.3C600.2,518.4,453.6,518.2,453.6,518.2z"
		/>
	<polygon class="st4" points="446.5,559.6 456.7,537.3 464.7,537.3 454,559.6 	"/>
	<polygon class="st4" points="604.1,537.3 613.5,560 620.1,559.6 611.2,537.3 	"/>
	<path class="st3" d="M463.9,518.4c0,0-14.1-10.9-14.7-15.4c-0.9-5.9,4.5-14.6,25-10.7s56.9,14.4,76.5,9c19.7-5.4,44.4-27.8,46.2-29
		c1.8-1.2,22.8-11.6,27.6,4.2c4.8,15.8-14.4,41.7-14.4,41.7L463.9,518.4z"/>
	<polygon class="st7" points="532.4,337.4 533,367.5 533.7,367.4 534.3,337.4 	"/>
	<path class="st7" d="M517.1,392.2c0,0-5.6-25.2,16.6-25.4c21-0.2,15.6,26.7,15.6,26.7L517.1,392.2z"/>
	<path class="st4" d="M516.9,392.2c0,0,17.9-7.7,32.5,1.2C549.4,393.4,534,401.6,516.9,392.2z"/>
	<path class="st4" d="M525.5,371.3c0,0-7.8,2.9-6.2,16.1"/>
	
		<linearGradient id="SVGID_1_" gradientUnits="userSpaceOnUse" x1="564.4709" y1="341.8066" x2="564.8779" y2="41.0386" gradientTransform="matrix(0.3283 0 0 -0.3283 347.9254 473.9088)">
		<stop  offset="0" style="stop-color:#FFFFFF"/>
		<stop  offset="1" style="stop-color:#FFFFFF;stop-opacity:0"/>
	</linearGradient>
	<polygon class="st8" points="516.9,392.2 501.1,448.9 565.6,448.3 549.4,393.4 	"/>
</g>
</svg>
