<?xml version="1.0" encoding="utf-8"?>
<!-- Generator: Adobe Illustrator 25.2.0, SVG Export Plug-In . SVG Version: 6.00 Build 0)  -->
<svg version="1.1" id="Layer_1" xmlns="http://www.w3.org/2000/svg" xmlns:xlink="http://www.w3.org/1999/xlink" x="0px" y="0px"
	 viewBox="0 0 1366 768" style="enable-background:new 0 0 1366 768;" xml:space="preserve">
<style type="text/css">
	.st0{fill:#F5F5FC;}
	.st1{fill:#F8F8FF;}
	.st2{fill:#E9EDFB;}
	.st3{fill:#B0C0F4;}
	.st4{fill:#FFFFFF;}
	.st5{fill:#E1E6FB;}
	.st6{fill:none;stroke:#FFFFFF;stroke-width:0.985;stroke-linecap:round;stroke-linejoin:round;stroke-miterlimit:1.3134;}
	.st7{fill:#BAC5F4;}
	.st8{fill:url(#SVGID_1_);}
</style>
<g id="Layer_2_1_">
	<path class="st0" d="M513,584.3c0,0-76.5-67,19.9-98.7c48.1-15.8,59.4-23.9,96.8-54.5c53.5-43.8,123.6-69.1,214.7,8.1
		s159.9,101.1,99.9,147.4c-67.4,52-26.4,78.8-34.9,93.4c-2.3,3.9-16.5-12.8-47.9,4.4c-71.5,39.1-107.9-20.4-160.5-5.6
		c-49.6,14-75.1-17-91.2-4.9c-24.1,18.1-39.1,17.8-48.2,13.1c-7.6-4-12-12.2-11.7-20.8c0.4-9.8,0.5-28.2-3.5-41.5
		C540.6,604.6,526.1,594.3,513,584.3z"/>
	<path class="st1" d="M513.9,585.1c0,0-77.3-68.5,20.1-100.9c48.5-16.1,60-24.4,97.7-55.7c54-44.7,124.7-70.6,216.7,8.3
		S1012,543.3,949.2,587.5c-43.5,30.6-28.8,15.6-42.3,26.1c-28.8,22.2-94.2-19.5-147.3-4.3c-50.1,14.3-98.7-7.1-120.5-8.5
		c-8.6-0.6-43.4-0.7-60.9-1.6c-9.8-0.5-20.6,3.8-34.2,0.5C523.6,594.8,527,595.3,513.9,585.1z"/>
	<g id="books">
		<path class="st2" d="M596.9,457.8l-25.1,16.9c-0.3,0.2-0.9-3.4-1.3-3.2l-17.1,6.6l-0.2,122.6l106.7-1.3l-0.8-166.2l-32.5,0.3
			L596.9,457.8z"/>
		<path class="st3" d="M588.6,461.8l-26.1,12.8l-0.1,3.4l87.1-0.5l-0.3-31.3l-37.5-0.5l-8.4,6.4c-1.5,1.1-3.3,2.3-5.6,3.8
			C593.8,458.4,591.6,460.1,588.6,461.8z"/>
		<polygon class="st3" points="562.5,483.1 562.5,514.1 649.6,513.9 649.6,483.1 		"/>
		<polygon class="st3" points="562.7,519.6 562.7,550.6 649.8,550.4 649.8,519.6 		"/>
		<polygon class="st3" points="563.2,556.6 563.2,587.6 650.3,587.4 650.3,556.6 		"/>
		<polygon class="st4" points="592.8,537.2 596.9,531.8 612.1,545.4 608.3,550.9 		"/>
		<polygon class="st4" points="562.7,525.6 572.5,525.7 572.6,550.6 562.7,550.5 		"/>
		<polygon class="st0" points="584.2,529.9 588.2,527.6 598.5,548.1 594.5,550.8 		"/>
		<polygon class="st4" points="579.4,522.9 584.2,522.9 584.3,550.7 579.4,550.6 		"/>
		<polygon class="st0" points="572.6,531.4 579.5,531.5 579.4,550.6 572.5,550.5 		"/>
		<polygon class="st4" points="610.7,525.6 620.5,525.6 620.6,550.5 610.7,550.4 		"/>
		<polygon class="st4" points="627.4,522.9 632.2,522.9 632.3,550.6 627.4,550.5 		"/>
		<polygon class="st0" points="620.6,531.3 627.5,531.5 627.4,550.6 620.5,550.5 		"/>
		<polygon class="st4" points="563.2,559.2 570.7,559.2 570.7,587.8 563.2,587.7 		"/>
		<polygon class="st0" points="570.7,563.5 575.8,563.4 575.6,587.7 570.6,587.7 		"/>
		<polygon class="st4" points="575.8,568.5 582.7,568.6 582.6,587.7 575.6,587.6 		"/>
		<polygon class="st0" points="618.2,473.9 618.2,477.4 646,477.6 646,473.9 		"/>
		<polygon class="st4" points="618.1,471 618.2,473.9 636.4,474 636.3,470.9 		"/>
		<polygon class="st4" points="562.5,489.1 572.3,489.2 572.4,514.1 562.5,514 		"/>
		<polygon class="st0" points="639.1,493.1 634.9,490.8 624.3,511.4 628.4,514 		"/>
		<polygon class="st4" points="644.9,486.2 649.7,486.2 649.8,513.9 644.9,513.8 		"/>
		<polygon class="st0" points="638.4,494.8 645.3,494.9 645.2,514 638.3,513.9 		"/>
		<polygon class="st0" points="591.5,510.4 591.5,514 619.4,514.2 619.4,510.4 		"/>
		<polygon class="st4" points="595.8,507.5 596,510.4 614.1,510.5 614,507.4 		"/>
	</g>
	<g id="flower">
		<path class="st0" d="M860.4,636.1c0,0-8.4,9.9-1.5,10.2c6.9,0.3,20.9,8.2,23.6,1.1s8.1-10.7,4.8-11.5c-3.3-0.8-6.3-4.1-13.2-3.6
			C867.3,632.8,860.4,636.1,860.4,636.1z"/>
		<path class="st5" d="M858.2,588c0,0-3.9,0.4-3.9,5.3c0,4.9,2.5,47,12.1,47.8c6.2,0.5,12.8,0.5,16.1,0.2c1.4-0.1,2.8-4.4,3-6.1
			c1.3-8.4,2.9-28.8,3.3-40.6c0.1-2.4-1.6-5.6-2.4-6.4C881.6,583.8,858.2,588,858.2,588z"/>
		<path class="st2" d="M904.6,506.6c-1.5-1.4-3.6,0.5-2.8,2.5c0.8,1.9,1.3,5.2-1.8,8.8c-4.7,5.5-21.8,24.1-21.7,36
			c0.2,11.9-3.5,15.3,0,19.8c3.5,4.5,17.8,4.4,21.5-5.3s13.2-13.6,13-27.4s-1.8-19.9-3.5-24.6C908.3,513.3,906.6,508.4,904.6,506.6z
			"/>
		<path class="st6" d="M878.7,586.2c0,0,1.5-21.6,18.4-31.1c10.6-5.9,11.3-26.4,8.8-31"/>
		<path class="st7" d="M880.9,595.3c0,0,5.3,21.3-0.4,38.2"/>
		<path class="st7" d="M893.1,501.8c-1.6-1.3-3.9,0.5-3,2.4c0.8,1.8,1.4,5-1.9,8.4c-5.1,5.3-23.4,23-23.2,34.4
			c0.2,11.4,0,18.1,3.8,22.5s12.6,0.9,16.6-8.4c4-9.2,16.7-13.2,16.6-26.4c-0.2-13.2-2-19-3.8-23.6
			C897,508.3,895.2,503.6,893.1,501.8z"/>
		<path class="st6" d="M871.7,586.7c0,0-6-29.4,8.5-47.1c5.8-7.1,14.4-21.3,14.3-28.1"/>
		<path class="st2" d="M847.9,506.6c1.5-1.4,3.6,0.5,2.8,2.5c-0.8,1.9-1.3,5.2,1.7,8.8c4.7,5.5,21.6,24.1,21.5,36
			c-0.2,11.9,0,18.9-3.5,23.5c-3.5,4.6-11.7,0.9-15.4-8.8c-3.7-9.7-15.5-13.8-15.3-27.6s1.8-19.9,3.5-24.6
			C844.3,513.3,845.9,508.4,847.9,506.6z"/>
		<path class="st6" d="M866.9,587.2c0,0,6.8-26.7-6.6-44.4c-5.4-7.1-14-17.5-13.9-24.4"/>
		<path class="st3" d="M837,553.2c0,0-14,0.3-21.6-16.7c-7.6-17,9.5-20.5,22-11.4c12.6,9.1,7.4,12.9,22.4,21.3
			c15,8.4,11.7,25.1,7.1,29.6c-4.6,4.5-13.4,11.4-19.3-6.7C841.7,551.3,837,553.2,837,553.2z"/>
		<path class="st6" d="M864.2,587.4c0,0,1-42.6-41.2-54.3"/>
		<path class="st7" d="M858.2,588c0,0,17.2-2.8,23.9-1.3s-11.8,3.2-11.8,3.2S861.4,590.2,858.2,588z"/>
	</g>
	<path class="st7" d="M649.6,592.5c0,0-19.4-15.3-22.7-30.3c-3.3-15,3.8-25.4,14.2-27s16.7-6.6,52.9,5.7
		c36.3,12.3,78.1-9.6,78.1-9.6s34.1-15.7,51-11.9c19.2,4.4,23.3,16,18.1,36.7c-5.2,20.7-22.8,36.4-22.8,36.4L649.6,592.5z"/>
	<path class="st7" d="M640.9,590.9c0,0-3,0-3.5,3c-0.5,3,0.5,12.6,2,15.6s8.6,2.9,8.6,2.9l173.1-0.4c0,0,5.7,0.1,7.1-4.5
		c1.1-3.7,2.6-7.4,2.7-9.9c0.1-3-2-5.6-5-6.1c-1.9-0.2-3.8-0.4-5.7-0.4C807,591.2,640.9,590.9,640.9,590.9z"/>
	<polygon class="st4" points="632.8,637.8 644.4,612.6 653.5,612.6 641.4,637.8 	"/>
	<polygon class="st4" points="811.4,612.6 822,638.3 829.6,637.8 819.5,612.6 	"/>
	<path class="st3" d="M652.6,591.2c0,0-16-12.3-16.7-17.4c-1-6.6,5-16.6,28.4-12.2c23.3,4.4,64.5,16.3,86.7,10.2
		c22.3-6.1,50.3-31.5,52.4-32.8c2-1.3,25.9-13.1,31.3,4.8c5.4,17.9-16.4,47.2-16.4,47.2L652.6,591.2z"/>
	<polygon class="st7" points="730.2,386 730.8,420.2 731.6,420 732.3,386 	"/>
	<path class="st7" d="M712.8,448.2c0,0-6.4-28.5,18.8-28.8c23.8-0.3,17.7,30.3,17.7,30.3L712.8,448.2z"/>
	<path class="st4" d="M712.6,448.2c0,0,20.2-8.8,36.8,1.4C749.4,449.5,732,458.8,712.6,448.2z"/>
	<path class="st4" d="M722.4,424.5c0,0-8.8,3.3-7,18.2"/>
	
		<linearGradient id="SVGID_1_" gradientUnits="userSpaceOnUse" x1="1453.5215" y1="-511.9943" x2="1453.9825" y2="-852.8206" gradientTransform="matrix(0.3283 0 0 -0.3283 253.8931 245.4342)">
		<stop  offset="0" style="stop-color:#FFFFFF"/>
		<stop  offset="1" style="stop-color:#FFFFFF;stop-opacity:0"/>
	</linearGradient>
	<polygon class="st8" points="712.6,448.2 694.7,512.4 767.8,511.7 749.4,449.5 	"/>
</g>
</svg>
