<svg id="a0910be2-6cb3-414b-9b74-c9f97494131d" xmlns="http://www.w3.org/2000/svg" viewBox="0 0 886 734">
  <path d="M0,0H886c0,405.38-328.62,734-734,734H0V0Z" style="fill: #d7ddda"/>
  <circle cx="652.86" cy="178.42" r="71.88" style="fill: #363654"/>
  <circle cx="432.08" cy="32.6" r="6.16" style="fill: #ff6584"/>
  <circle cx="632.32" cy="445.42" r="6.16" style="fill: #ff6584"/>
  <circle cx="652.86" cy="32.6" r="6.16" style="fill: #f2f2f2"/>
  <circle cx="739.12" cy="329.38" r="6.16" style="fill: #f2f2f2"/>
  <circle cx="493.69" cy="198.96" r="6.16" style="fill: #f2f2f2"/>
  <circle cx="168.16" cy="157.89" r="6.16" style="fill: #f2f2f2"/>
  <circle cx="284.2" cy="413.59" r="209.49" style="fill: #08c466"/>
  <circle cx="274.96" cy="328.35" r="30.81" style="opacity: 0.20000000298023224;isolation: isolate"/>
  <circle cx="274.96" cy="534.76" r="53.4" style="opacity: 0.20000000298023224;isolation: isolate"/>
  <circle cx="119.9" cy="453.63" r="13.35" style="opacity: 0.20000000298023224;isolation: isolate"/>
  <circle cx="646.61" cy="141.35" r="7.1" style="opacity: 0.20000000298023224;isolation: isolate"/>
  <circle cx="345.72" cy="282.03" r="7.1" style="opacity: 0.20000000298023224;isolation: isolate"/>
  <circle cx="265.72" cy="422.83" r="9.24" style="opacity: 0.20000000298023224;isolation: isolate"/>
  <circle cx="629.33" cy="198.05" r="7.1" style="opacity: 0.20000000298023224;isolation: isolate"/>
  <circle cx="438.33" cy="372.62" r="7.1" style="opacity: 0.20000000298023224;isolation: isolate"/>
  <circle cx="692.93" cy="191.35" r="10.25" style="opacity: 0.20000000298023224;isolation: isolate"/>
  <circle cx="379.72" cy="445" r="10.25" style="opacity: 0.20000000298023224;isolation: isolate"/>
  <circle cx="154.81" cy="328.35" r="13.35" style="opacity: 0.20000000298023224;isolation: isolate"/>
  <path d="M329.59,534.34a585.73,585.73,0,0,1-65.93-3.81c-65.83-7.48-126.55-25.14-171-49.74-45-24.91-68-54.07-64.78-82.11,2.21-19.43,21-36.82,57.41-53.16A2.06,2.06,0,0,1,87,349.27c-35,15.7-53,32-55,49.87-3,26.29,19.27,54,62.68,78.05,43.95,24.35,104.13,41.84,169.43,49.26s127.87,3.86,176.17-10c47.69-13.7,75.6-35.72,78.59-62,2-17.79-7.78-36.64-28.33-54.53a2.06,2.06,0,1,1,2.7-3.1c21.61,18.82,31.89,38.91,29.71,58.09-3.19,28-32.14,51.3-81.54,65.49C409.26,529.62,370.87,534.34,329.59,534.34Z" style="fill: #fff"/>
  <polygon points="786.42 324.46 792.25 328.83 795.16 308.45 786.42 324.46" style="opacity: 0.10000000149011612;isolation: isolate"/>
</svg>
